<?xml version="1.0" encoding="iso-8859-1"?>
<!-- Generator: Adobe Illustrator 19.0.0, SVG Export Plug-In . SVG Version: 6.00 Build 0)  -->
<svg version="1.1" id="Layer_1" xmlns="http://www.w3.org/2000/svg" xmlns:xlink="http://www.w3.org/1999/xlink" x="0px" y="0px"
	 viewBox="0 0 504.155 504.155" style="enable-background:new 0 0 504.155 504.155;" xml:space="preserve">
<path style="fill:#007EEF;" d="M373.847,367.955l-56.288-153.679c2.292-2.245,36.691-36.628,38.88-38.817
	c38.66-38.676,26.971-32.65,36.092-48.813c2.182-3.033,3.521-5.797,4.064-8.247c2.45-6.105,2.505-9.941,0.803-11.65
	c-1.694-1.709-5.53-1.646-11.65,0.803c-2.45,0.52-5.215,1.875-8.231,4.064c-16.171,9.137-10.161-2.568-48.829,36.092
	c-2.182,2.182-36.573,36.588-38.802,38.88L136.208,130.3c-2.741-1-5.797-0.323-7.877,1.741l-11.414,11.398
	c-1.52,1.536-2.308,3.647-2.15,5.797c0.126,1.827,0.89,3.505,2.166,4.766c0.228,0.228,0.504,0.48,0.772,0.693l117.996,89.427
	c-34.225,37.691-67.395,76.524-85.472,100.447l-34.477-8.862c-1.969-0.52-4.049,0.063-5.474,1.481l-3.017,3.033
	c-1.197,1.197-1.804,2.859-1.646,4.537c0.095,1.339,0.709,2.584,1.646,3.537c0.228,0.228,0.488,0.433,0.756,0.63l25.726,18.046
	c0.772,0.536,1.646,0.803,2.521,0.906c0.11,0.874,0.37,1.772,0.906,2.521l18.046,25.726c0.197,0.276,0.417,0.52,0.646,0.772
	c0.929,0.922,2.166,1.52,3.537,1.646c1.678,0.158,3.34-0.449,4.537-1.646l3.033-3.033c1.426-1.418,1.985-3.489,1.473-5.459
	l-8.838-34.477c23.891-18.093,62.724-51.263,100.431-85.48l89.435,118.012c0.189,0.26,0.425,0.52,0.67,0.756
	c1.26,1.26,2.954,2.064,4.758,2.182c2.174,0.142,4.285-0.646,5.79-2.182l11.429-11.398
	C374.185,373.752,374.847,370.696,373.847,367.955z"/>
<path style="fill:#0453AA;" d="M373.847,367.955l-56.288-153.679c2.292-2.245,36.691-36.628,38.88-38.817
	c38.66-38.676,26.971-32.65,36.092-48.813c2.182-3.033,3.521-5.797,4.064-8.247c2.45-6.105,2.505-9.941,0.803-11.65
	c-1.694-1.709-5.53-1.646-11.65,0.803c-2.45,0.52-5.215,1.875-8.231,4.064c-16.171,9.137-10.161-2.568-48.829,36.092
	c-2.182,2.182-36.573,36.588-38.802,38.88l-25.403-9.295l-0.016,97.028l85.008,112.136c0.189,0.26,0.425,0.52,0.67,0.756
	c1.26,1.26,2.954,2.064,4.758,2.182c2.174,0.142,4.285-0.646,5.79-2.182l11.429-11.398
	C374.185,373.752,374.847,370.696,373.847,367.955z"/>
<g>
	<path style="fill:#007EEF;" d="M41.889,262.372c-5.679,0-10.279-4.6-10.279-10.279c0-121.588,98.911-220.475,220.459-220.475
		c5.679,0,10.279,4.616,10.279,10.295s-4.592,10.256-10.272,10.256c-110.23,0-199.908,89.679-199.908,199.924
		C52.169,257.772,47.569,262.372,41.889,262.372z"/>
	<path style="fill:#007EEF;" d="M252.077,472.552c-5.679,0-10.295-4.616-10.295-10.295c0-5.679,4.616-10.279,10.295-10.279
		c110.222,0,199.901-89.679,199.901-199.893c0-5.679,4.608-10.295,10.287-10.295s10.279,4.616,10.279,10.295
		C472.537,373.65,373.634,472.552,252.077,472.552z"/>
</g>
<g>
	<path style="fill:#0453AA;" d="M234.701,87.552c-3.938,0-7.869-1.489-10.878-4.506c-6.01-6.002-6.01-15.738,0-21.74l17.518-17.526
		l-17.518-17.51c-6.01-6.018-6.01-15.738,0-21.756c6.01-6.018,15.746-6.018,21.748,0l39.259,39.259l-39.259,39.259
		C242.57,86.063,238.631,87.552,234.701,87.552z"/>
	<path style="fill:#0453AA;" d="M269.446,416.618c3.938-0.016,7.877,1.489,10.878,4.49c6.018,6.018,6.018,15.738,0,21.756
		l-17.51,17.526l17.51,17.51c6.018,6.002,6.002,15.738,0,21.74c-6.002,6.018-15.73,6.018-21.74,0l-39.274-39.259l39.274-39.243
		C261.585,418.107,265.523,416.618,269.446,416.618z"/>
</g>
<g>
</g>
<g>
</g>
<g>
</g>
<g>
</g>
<g>
</g>
<g>
</g>
<g>
</g>
<g>
</g>
<g>
</g>
<g>
</g>
<g>
</g>
<g>
</g>
<g>
</g>
<g>
</g>
<g>
</g>
</svg>
