<?xml version="1.0" encoding="iso-8859-1"?>
<!-- Generator: Adobe Illustrator 19.0.0, SVG Export Plug-In . SVG Version: 6.00 Build 0)  -->
<svg version="1.1" id="Layer_1" xmlns="http://www.w3.org/2000/svg" xmlns:xlink="http://www.w3.org/1999/xlink" x="0px" y="0px"
	 viewBox="0 0 512 512" style="enable-background:new 0 0 512 512;" xml:space="preserve">
<path style="fill:#1E0478;" d="M512,244.65v70.235c0,5.78-4.691,10.47-10.47,10.47h-47.745c-2.251,10.188-7.413,19.506-15.046,26.94
	c-10.125,9.853-23.495,15.287-37.641,15.287c-14.135,0-27.506-5.434-37.63-15.297c-7.633-7.423-12.795-16.742-15.046-26.93h-187.66
	c-2.241,10.156-7.413,19.496-15.046,26.94c-10.135,9.853-23.506,15.287-37.641,15.287c-14.145,0-27.516-5.434-37.651-15.287
	c-7.622-7.434-12.784-16.753-15.035-26.94H10.47c-5.78,0-10.47-4.691-10.47-10.47v-37.421c0-15.528,5.591-30.552,15.747-42.3
	c10.167-11.758,24.218-19.464,39.588-21.705l63.408-9.245l88.391-44.949c19.098-9.716,40.52-14.847,61.943-14.847h59.796
	c17.506,0,34.615,3.298,50.854,9.811l97.552,39.096C498.368,201.785,512,221.929,512,244.65z M491.059,304.415v-31.243h-4.785
	c-19.15,0-34.741-15.59-34.741-34.751v-13.632h-66.256c-0.01,0-0.01,0-0.01,0c-0.01,0-0.01,0-0.01,0H122.765l-44.028,6.418
	c-3.654,28.752-28.134,51.074-57.796,51.347v21.862h33.966c4.387-25.38,26.542-44.761,53.168-44.761
	c26.616,0,48.781,19.381,53.168,44.761H347.94c4.387-25.38,26.542-44.761,53.158-44.761c26.626,0,48.781,19.381,53.168,44.761
	H491.059z M491.059,252.231v-7.581c0-7.319-2.293-14.187-6.303-19.862h-12.282v13.632c0,7.612,6.198,13.81,13.8,13.81H491.059z
	 M390.418,203.847h56.823l-75.303-30.186c-2.167-0.859-4.345-1.654-6.534-2.387L390.418,203.847z M434.132,313.618
	c0-18.239-14.784-33.023-33.023-33.023c-18.239,0-33.034,14.784-33.034,33.023s14.795,33.023,33.034,33.023
	C419.348,346.642,434.132,331.858,434.132,313.618z M364.012,203.847l-29.453-38.353c-1.885-0.094-3.78-0.136-5.685-0.136h-49.975
	v38.489L364.012,203.847L364.012,203.847z M257.958,203.847v-37.934c-14.365,1.393-28.469,5.476-41.337,12.02l-50.959,25.914
	H257.958z M141.088,313.618c0-18.239-14.784-33.023-33.023-33.023s-33.023,14.784-33.023,33.023s14.784,33.023,33.023,33.023
	S141.088,331.858,141.088,313.618z M24.029,261.445c15.559-1.487,28.406-12.418,32.709-26.982
	C41.703,237.237,29.484,247.76,24.029,261.445z"/>
<path style="fill:#9B8CCC;" d="M491.059,273.171v31.243h-36.793c-4.387-25.38-26.542-44.761-53.168-44.761
	c-26.616,0-48.771,19.381-53.158,44.761H161.243c-4.387-25.38-26.553-44.761-53.168-44.761c-26.626,0-48.781,19.381-53.168,44.761
	H20.941v-21.862c29.662-0.272,54.142-22.595,57.796-51.347l44.028-6.418h262.492c0,0,0,0,0.01,0c0,0,0,0,0.01,0h66.256v13.632
	c0,19.161,15.59,34.751,34.741,34.751L491.059,273.171L491.059,273.171z M300.667,264.607c0-5.79-4.68-10.47-10.47-10.47h-69.439
	c-5.79,0-10.47,4.68-10.47,10.47c0,5.78,4.68,10.47,10.47,10.47h69.439C295.986,275.077,300.667,270.386,300.667,264.607z"/>
<path style="fill:#94E7EF;" d="M491.059,244.65v7.581h-4.785c-7.601,0-13.8-6.198-13.8-13.81v-13.632h12.282
	C488.766,230.463,491.059,237.331,491.059,244.65z"/>
<g>
	<path style="fill:#FFFFFF;" d="M447.241,203.847h-56.823l-25.014-32.573c2.188,0.733,4.366,1.529,6.534,2.387L447.241,203.847z"/>
	<path style="fill:#FFFFFF;" d="M401.109,280.595c18.239,0,33.023,14.784,33.023,33.023s-14.784,33.023-33.023,33.023
		c-18.239,0-33.034-14.784-33.034-33.023S382.869,280.595,401.109,280.595z M414.982,313.618c0-7.664-6.209-13.884-13.873-13.884
		c-7.675,0-13.884,6.219-13.884,13.884s6.209,13.884,13.884,13.884C408.773,327.502,414.982,321.283,414.982,313.618z"/>
</g>
<path style="fill:#1E0478;" d="M401.109,299.735c7.664,0,13.873,6.219,13.873,13.884s-6.209,13.884-13.873,13.884
	c-7.675,0-13.884-6.219-13.884-13.884S393.434,299.735,401.109,299.735z"/>
<path style="fill:#FFFFFF;" d="M334.559,165.494l29.453,38.353h-85.113v-38.489h49.975
	C330.779,165.358,332.674,165.4,334.559,165.494z"/>
<path style="fill:#1E0478;" d="M290.196,254.136c5.79,0,10.47,4.68,10.47,10.47c0,5.78-4.68,10.47-10.47,10.47h-69.439
	c-5.79,0-10.47-4.691-10.47-10.47c0-5.79,4.68-10.47,10.47-10.47H290.196z"/>
<g>
	<path style="fill:#FFFFFF;" d="M257.958,165.913v37.934h-92.296l50.959-25.914C229.489,171.389,243.593,167.306,257.958,165.913z"
		/>
	<path style="fill:#FFFFFF;" d="M108.064,280.595c18.239,0,33.023,14.784,33.023,33.023s-14.784,33.023-33.023,33.023
		s-33.023-14.784-33.023-33.023S89.825,280.595,108.064,280.595z M121.948,313.618c0-7.664-6.209-13.884-13.884-13.884
		c-7.664,0-13.873,6.219-13.873,13.884s6.209,13.884,13.873,13.884C115.739,327.502,121.948,321.283,121.948,313.618z"/>
</g>
<path style="fill:#1E0478;" d="M108.064,299.735c7.675,0,13.884,6.219,13.884,13.884s-6.209,13.884-13.884,13.884
	c-7.664,0-13.873-6.219-13.873-13.884S100.4,299.735,108.064,299.735z"/>
<path style="fill:#94E7EF;" d="M56.739,234.462c-4.303,14.564-17.15,25.495-32.709,26.982
	C29.484,247.76,41.703,237.237,56.739,234.462z"/>
<g>
</g>
<g>
</g>
<g>
</g>
<g>
</g>
<g>
</g>
<g>
</g>
<g>
</g>
<g>
</g>
<g>
</g>
<g>
</g>
<g>
</g>
<g>
</g>
<g>
</g>
<g>
</g>
<g>
</g>
</svg>
